<?xml version="1.0" encoding="UTF-8"?>
<svg id="Layer_1" data-name="Layer 1" xmlns="http://www.w3.org/2000/svg" xmlns:xlink="http://www.w3.org/1999/xlink" viewBox="0 0 500 500">
  <defs>
    <style>
      .cls-1 {
        fill: none;
      }

      .cls-2 {
        fill: url(#linear-gradient);
      }

      .cls-3 {
        fill: url(#linear-gradient-2);
      }
    </style>
    <linearGradient id="linear-gradient" x1="126.61" y1="245.7" x2="377.89" y2="245.7" gradientUnits="userSpaceOnUse">
      <stop offset=".55" stop-color="#8d8b33"/>
      <stop offset=".56" stop-color="#928f33"/>
      <stop offset=".6" stop-color="#a8a537"/>
      <stop offset=".65" stop-color="#b9b539"/>
      <stop offset=".71" stop-color="#c6c13b"/>
      <stop offset=".79" stop-color="#cdc83c"/>
      <stop offset="1" stop-color="#cfca3d"/>
    </linearGradient>
    <linearGradient id="linear-gradient-2" x1="210.27" y1="245.42" x2="294.31" y2="245.42" gradientUnits="userSpaceOnUse">
      <stop offset=".47" stop-color="#8d8b33"/>
      <stop offset=".69" stop-color="#aeab38"/>
      <stop offset=".88" stop-color="#c6c13b"/>
      <stop offset="1" stop-color="#cfca3d"/>
    </linearGradient>
  </defs>
  <circle class="cls-1" cx="260.35" cy="244.76" r="4.61" transform="translate(-96.82 255.78) rotate(-45)"/>
  <path class="cls-1" d="M272.9,239.68c5.89-.02,8.75-.1,12.12-.15-.02-7.65-.05-18.52,0-25.22,0-1.32-.36-1.6-1.63-1.6-20.72,.04-41.44,.04-62.17,0-1.28,0-1.63,.3-1.62,1.61,.05,7.72,0,17.21-.01,25.13,1.84,0,.97,0,11,.02,1.54,0,2.46-4.66,3.2-6.36,3.68-8.56,9.5-12.73,17.67-13.07,.51-.02,1.02-.02,1.51-.01v8.23c-5.76,1-10.48,4.96-12.52,10.25-.7,1.81-1.1,3.77-1.1,5.82s.39,3.95,1.07,5.74c2.02,5.32,6.76,9.32,12.55,10.33v8.21c-5.32,.29-10.33-1.46-14.79-5.87-1.94-1.92-3.43-4.41-4.38-7.22-.6-1.79-1.42-6.45-3.07-6.44-9.84,.05-9.26,.03-11.08,0,0,.21,0,.44,0,.67,0,8.97,.01,17.93-.02,26.9,0,.96,.07,1.48,1.29,1.47,20.94-.04,41.87-.04,62.81,0,1.23,0,1.28-.53,1.28-1.48-.02-9.21-.01-18.42-.01-27.63-3.25,0-6.02-.01-11.76-.02-1.78,5.41-6.86,9.31-12.86,9.31s-10.74-3.66-12.67-8.78c-.56-1.48-.88-3.08-.88-4.76s.33-3.33,.9-4.83c1.95-5.09,6.86-8.71,12.64-8.71s10.54,3.5,12.55,8.46Z"/>
  <path class="cls-1" d="M368.92,245.43c0,2.54-2.05,4.6-4.59,4.61,0,0,.01,0,.02,0,2.55,0,4.61-2.06,4.61-4.61s-2.06-4.61-4.61-4.61c0,0-.01,0-.02,0,2.54,0,4.59,2.07,4.59,4.61Z"/>
  <path class="cls-1" d="M299.74,187.95c-.49-.12-1.03-.08-1.54-.08-13.64-.02-27.27-.04-40.91-.05,.03-.45,.03-.9,.02-1.35,.01,.45,0,.9-.02,1.35-.62,.02-1.24,.06-1.86,.06-16.33,0-32.66-.01-48.99,0-2.94,0-5.41,1.2-7.59,3.15-3.03,2.7-4.16,6.03-4.16,10.05,.06,29.91,.07,59.82,0,89.73-.01,5.3,4.27,10.67,9.22,11.77,1.17,.26,2.3,.42,3.46,.42,17.21,0,34.42,0,51.63,0,.67,0,1.34,.04,2.02,.06,11.93-.02,23.85-.07,35.78-.03,4.24,.02,7.65-1.44,10.45-4.66,2.12-2.45,2.59-5.34,2.59-8.34,.04-29.82,.02-59.63,.03-89.45,0-6.64-4.18-11.24-10.13-12.63Zm-5.44,61.02c0,11.3,0,22.61,0,33.91,0,2.76-1.96,4.54-4.88,4.54-24.68,0-49.36,0-74.04,.01-3.03,0-5.13-1.64-5.11-5.02,.06-9.75,0-19.49,.02-29.24,0-2.03,0-3.21,.01-4.18-.01,0-.02,0-.03,0l.07-9.5s.07-.03,.11-.04h-.11c-.01-9.47-.03-21.71-.05-31.07,0-3.16,1.76-4.97,4.91-4.97,5.65,0,11.3,0,16.95,0,19.08,0,38.15,0,57.23,0,2.88,0,4.89,1.71,4.89,4.35,.01,5.18,0,10.37,0,15.55s-.02,10.37-.03,15.55v.62s.04,0,.06,0l-.06,9.48h.05Z"/>
  <path class="cls-2" d="M320.57,250.08c10.11,.04,20.21,.04,30.32,0,.32,0,.57,.04,.8,.11,1.93,5.13,6.86,8.78,12.67,8.78,7.48,0,13.54-6.06,13.54-13.54s-6.06-13.54-13.54-13.54c-5.77,0-10.69,3.62-12.64,8.71-.26,.1-.55,.17-.91,.17-10.16-.02-20.32-.02-30.48,.01-.87,0-1.15-.24-1.14-1.13,.03-7.26,.03-14.51,0-21.77,0-.76,.15-1.1,1.01-1.09,10.37,.03,20.73,.02,31.1,.02,.06,0,.11,0,.17,0,.07,.22,.13,.44,.21,.65,1.93,5.13,6.86,8.78,12.67,8.78,7.48,0,13.54-6.06,13.54-13.54,0-4.85-2.55-9.08-6.38-11.48-.18-.12-.37-.23-.56-.34-.21-.12-.43-.22-.65-.33-.15-.07-.29-.15-.44-.21-1.68-.75-3.55-1.18-5.51-1.18-5.69,0-10.54,3.52-12.55,8.49-.2,.08-.42,.13-.71,.13-10.27-.02-20.53-.02-30.8,0-.9,0-1.14-.28-1.12-1.15,.05-2.38,0-4.77,.02-7.15,.03-2.32-.33-4.65-1.07-6.77-1.85-5.27-5.5-9.14-10.4-11.8-.75-.41-1.01-.85-1-1.68,.04-3.63,.06-7.26,0-10.89-.02-1.1,.29-1.39,1.38-1.38,4.92,.06,9.85,.03,14.78,.03,2.8,0,4.41-1.57,4.41-4.32,0-5.03,.06-10.06-.03-15.09-.01-.78,.11-1.33,.44-1.79,4.99-2,8.52-6.87,8.52-12.57,0-7.48-6.06-13.54-13.54-13.54-5.77,0-10.69,3.62-12.64,8.71-.57,1.5-.9,3.13-.9,4.83s.32,3.28,.88,4.76c1.4,3.74,4.41,6.68,8.18,8.01,.06,.17,.09,.37,.09,.62-.03,3.37-.05,6.74,.01,10.1,.02,1.05-.33,1.28-1.32,1.27-5.18-.04-10.36-.02-15.54-.02-2.31,0-4.39,2.18-4.2,4.44,.43,5.01,.05,10.03,.21,15.04,.03,.96-.38,1.1-1.19,1.08-1.6-.05-3.22-.1-4.82,.02-1.27,.1-1.52-.38-1.51-1.56,.04-9.84,.05-19.69,0-29.53,0-.67,.1-1.17,.35-1.59,5.09-1.95,8.7-6.86,8.7-12.64,0-7.48-6.06-13.54-13.54-13.54-5.77,0-10.69,3.62-12.64,8.71-.57,1.5-.9,3.13-.9,4.83s.32,3.28,.88,4.76c1.39,3.69,4.34,6.61,8.04,7.96,.1,.27,.13,.58,.13,.97-.02,10-.04,20,.02,29.99,0,1.27-.29,1.65-1.6,1.63-6.11-.06-12.22,0-18.34,.01-.88-.02-1.77-.13-2.63-.04-1.2,.13-1.45-.34-1.44-1.47,.04-9.99,.06-19.98-.02-29.97,0-.43,.06-.77,.16-1.07,5.31-1.83,9.13-6.86,9.13-12.79,0-7.48-6.06-13.54-13.54-13.54-5.77,0-10.69,3.62-12.64,8.71-.57,1.5-.9,3.13-.9,4.83s.32,3.28,.88,4.76c1.31,3.48,4,6.27,7.4,7.71,.16,.29,.24,.65,.23,1.1-.03,10.11-.04,20.21,0,30.32,0,1.06-.23,1.41-1.36,1.41-7.1-.05-14.2-.04-21.3,0-.96,0-1.35-.18-1.34-1.26,.04-10.21,.03-20.42,.01-30.63,0-.26,.02-.47,.08-.65,5.26-1.86,9.03-6.86,9.03-12.75,0-7.48-6.06-13.54-13.54-13.54-5.77,0-10.69,3.62-12.64,8.71-.57,1.5-.9,3.13-.9,4.83s.32,3.28,.88,4.76c1.38,3.68,4.31,6.59,8,7.94,.06,.17,.1,.36,.1,.61-.03,10.31-.03,20.63,0,30.94,0,.84-.3,1.06-1.09,1.04-1.61-.04-3.22-.08-4.82,0-1.24,.07-1.62-.4-1.6-1.61,.05-4.87-.01-9.74,.04-14.61,.02-2.12-1.76-4.44-4.3-4.37-5.08,.14-10.16,.04-15.24,.04-.64,0-1.36,.2-1.35-.92,.05-3.58,.02-7.15,.01-10.73,0-.15,.01-.28,.04-.41,5.15-1.92,8.82-6.86,8.82-12.68,0-7.48-6.06-13.54-13.54-13.54-5.77,0-10.69,3.62-12.64,8.71-.57,1.5-.9,3.13-.9,4.83s.32,3.28,.88,4.76c1.41,3.74,4.41,6.69,8.19,8.01,.13,.28,.18,.62,.17,1.04-.05,5.24-.03,10.47-.02,15.71,0,2.59,1.66,4.23,4.26,4.23,4.93,0,9.85,.05,14.78-.03,1.27-.02,1.55,.4,1.52,1.58-.08,2.95-.1,5.91,0,8.87,.06,1.82-.1,3.08-2.11,4.09-3.51,1.78-6.12,4.76-7.97,8.23-1.1,2.07-1.86,4.35-2.17,6.71-.43,3.32-.18,6.66-.21,9.98,0,.93-.14,1.37-1.25,1.37-10.22-.04-20.43-.03-30.65,0-.27,0-.48-.05-.65-.13-1.89-5.2-6.86-8.93-12.72-8.93s-10.69,3.62-12.64,8.71c-.57,1.5-.9,3.13-.9,4.83s.32,3.28,.88,4.76c1.93,5.13,6.86,8.78,12.67,8.78s10.84-3.73,12.72-8.94c.23-.09,.5-.12,.85-.12,10.11,.02,20.22,.04,30.33,0,1.11,0,1.38,.33,1.37,1.4-.05,6.95-.05,13.89,0,20.84,.01,1.36-.39,1.79-1.76,1.78-9.95-.05-19.91-.04-29.86,0-.39,0-.71-.05-.98-.15-1.93-5.13-6.86-8.78-12.67-8.78s-10.69,3.62-12.64,8.71c-.57,1.5-.9,3.13-.9,4.83s.32,3.28,.88,4.76c1.93,5.13,6.86,8.78,12.67,8.78s10.71-3.64,12.65-8.74c.25-.1,.54-.16,.92-.16,10.11,.06,20.22,.05,30.33,.01,1.1,0,1.38,.32,1.38,1.39-.05,7.05-.05,14.1,0,21.15,0,1.15-.27,1.48-1.45,1.48-10.06-.05-20.11-.04-30.17,0-.33,0-.58-.06-.81-.14-1.89-5.2-6.86-8.93-12.72-8.93s-10.69,3.62-12.64,8.71c-.57,1.5-.9,3.13-.9,4.83s.32,3.28,.88,4.76c1.93,5.13,6.86,8.78,12.67,8.78s10.88-3.76,12.75-9.01c.11-.02,.22-.04,.35-.04,10.31,.03,20.63,.04,30.94,0,.94,0,1.12,.36,1.1,1.19-.04,2.18-.04,4.35,0,6.53,.14,8.61,3.88,15.08,11.51,19.19,.69,.37,.96,.77,.95,1.55-.04,3.68-.05,7.36,0,11.04,.01,1-.26,1.33-1.29,1.32-4.87-.05-9.74-.02-14.61-.02-3.15,0-4.65,1.49-4.65,4.62,0,4.46-.15,8.92,.06,13.37,.09,1.91-.21,3.34-1.59,4.18-.16,.08-.31,.17-.46,.25-.22,.1-.46,.19-.73,.27-.14,.04-.29,.11-.41,.2-.73,.6-1.38,1.23-1.97,1.89-1.31,1.33-2.35,2.91-3.03,4.69-.57,1.5-.9,3.13-.9,4.83s.32,3.28,.88,4.76c1.93,5.13,6.86,8.78,12.67,8.78,7.48,0,13.54-6.06,13.54-13.54,0-4.29-2-8.11-5.11-10.59-.02-.02-.04-.05-.07-.07-.83-.72-1.76-1.51-2.78-1.78-.99-.27-1.08-.72-1.08-1.5,.01-3.27,.06-6.54-.02-9.8-.03-1.19,.27-1.59,1.53-1.57,4.98,.08,9.96,.04,14.94,.03,2.85,0,4.42-1.6,4.42-4.5,0-4.82,.05-9.65-.03-14.47-.02-1.34,.39-1.68,1.66-1.59,1.55,.11,3.11,.09,4.66,0,.99-.05,1.21,.32,1.2,1.25-.03,10.22-.03,20.43,0,30.65,0,.73-.23,1.17-.87,1.4-1.07,.38-1.96,1-2.79,1.71-2.02,1.52-3.61,3.59-4.53,6-.57,1.5-.9,3.13-.9,4.83s.32,3.28,.88,4.76c1.93,5.13,6.86,8.78,12.67,8.78,7.48,0,13.54-6.06,13.54-13.54,0-4.21-1.93-7.98-4.94-10.46-.84-.72-1.78-1.33-2.82-1.84-.88-.43-1.24-.78-1.24-1.76,.03-10.15,.03-20.31,0-30.46,0-1.01,.27-1.31,1.3-1.31,7.15,.04,14.3,.04,21.45,0,.92,0,1.25,.2,1.25,1.19-.04,10.26-.02,20.52-.02,30.78,0,.65-.14,1-.84,1.4-1.49,.83-3.04,1.58-4.18,2.98-1.29,1.32-2.32,2.89-2.99,4.64-.57,1.5-.9,3.13-.9,4.83s.32,3.28,.88,4.76c1.93,5.13,6.86,8.78,12.67,8.78,7.48,0,13.54-6.06,13.54-13.54,0-3.98-1.73-7.54-4.46-10.02-.1-.09-.19-.18-.29-.26-.4-.34-.81-.66-1.24-.95-.04-.03-.1-.06-.14-.09-.37-.24-.75-.46-1.14-.67-.11-.06-.21-.13-.33-.19-.9-.46-1.26-.94-1.26-1.97,.04-10.09,.02-20.19,.04-30.28,0-.24-.06-.5-.05-.75,0-.25,.09-.49,.36-.68-.03-.23-.05-.47-.07-.7,.02,.23,.04,.47,.07,.7,7.41,.02,14.82,.03,22.24,.05,.69,0,1.43-.24,1.43,.99-.04,10.37-.03,20.74,0,31.1,0,.44-.1,.81-.32,1.08-1.37,.52-2.63,1.25-3.75,2.17-.52,.41-.98,.85-1.4,1.33-1.15,1.25-2.06,2.71-2.68,4.32-.57,1.5-.9,3.13-.9,4.83s.32,3.28,.88,4.76c1.93,5.13,6.86,8.78,12.67,8.78,7.48,0,13.54-6.06,13.54-13.54,0-3.33-1.21-6.37-3.2-8.73-1.23-1.57-2.87-2.8-4.75-3.72-.6-.29-1.11-.48-1.11-1.38,.04-10.32,.04-20.64,.01-30.96,0-.84,.28-1.06,1.08-1.04,1.66,.05,3.32,.09,4.98,0,1.16-.07,1.49,.26,1.47,1.45-.07,4.87,.01,9.75-.05,14.62-.04,2.78,2.12,4.61,4.47,4.54,5.03-.16,10.06-.02,15.09-.06,.97,0,1.35,.19,1.33,1.26-.07,3.42-.03,6.84-.02,10.27,0,.47-.05,.83-.54,1.05-3.67,1.35-6.6,4.23-7.99,7.88-.57,1.5-.9,3.13-.9,4.83s.32,3.28,.88,4.76c1.93,5.13,6.86,8.78,12.67,8.78,7.48,0,13.54-6.06,13.54-13.54,0-1.08-.14-2.12-.38-3.13-.04-.24-.08-.49-.13-.73-.9-4.03-3.46-6.89-7.2-8.67-.6-.28-.93-.72-.93-1.45,.02-5.23-.05-10.47,.04-15.7,.05-2.78-1.54-4.62-4.31-4.62-4.98,0-9.95-.02-14.93,.02-.93,0-1.38-.12-1.36-1.23,.07-3.68,.05-7.36,0-11.04-.01-.84,.28-1.26,1.01-1.67,2.65-1.49,5.15-3.17,7-5.7,2.23-3.05,3.56-6.4,4.17-10.11,.51-3.14,.22-6.29,.25-9.43,0-1.27,.29-1.64,1.61-1.63,9.85,.06,19.7,.06,29.54,0,.56,0,1,.08,1.37,.26,0,0,0,0,0,.01,1.93,5.13,6.86,8.78,12.67,8.78,7.48,0,13.54-6.06,13.54-13.54s-6.06-13.54-13.54-13.54c-5.77,0-10.69,3.62-12.64,8.71-.03,.08-.05,.17-.09,.26-.2,.05-.43,.07-.69,.07-10.12-.01-20.24-.02-30.36,.02-1.06,0-1.41-.23-1.4-1.35,.05-7.1,.05-14.2,0-21.3,0-1.12,.33-1.36,1.4-1.35Zm43.75-9.26s.01,0,.02,0c0,0,.01,0,.02,0,2.55,0,4.61,2.06,4.61,4.61s-2.06,4.61-4.61,4.61c0,0-.01,0-.02,0,0,0-.01,0-.02,0-2.55,0-4.61-2.06-4.61-4.61s2.06-4.61,4.61-4.61Zm0-32.72c2.55,0,4.61,2.06,4.61,4.61s-2.06,4.61-4.61,4.61-4.61-2.06-4.61-4.61,2.06-4.61,4.61-4.61Zm-41.68-79.46c2.55,0,4.61,2.06,4.61,4.61s-2.06,4.61-4.61,4.61-4.61-2.06-4.61-4.61,2.06-4.61,4.61-4.61Zm-141.04,0c2.55,0,4.61,2.06,4.61,4.61s-2.06,4.61-4.61,4.61-4.61-2.06-4.61-4.61,2.06-4.61,4.61-4.61Zm-46.1,83.66c0-2.55,2.06-4.61,4.61-4.61s4.61,2.06,4.61,4.61-2.06,4.61-4.61,4.61-4.61-2.06-4.61-4.61Zm0,33.11c0-2.55,2.06-4.61,4.61-4.61s4.61,2.06,4.61,4.61-2.06,4.61-4.61,4.61-4.61-2.06-4.61-4.61Zm.12,33.15c0-2.55,2.06-4.61,4.61-4.61s4.61,2.06,4.61,4.61-2.06,4.61-4.61,4.61-4.61-2.06-4.61-4.61Zm46.15,84.19c-2.55,0-4.61-2.06-4.61-4.61s2.06-4.61,4.61-4.61,4.61,2.06,4.61,4.61-2.06,4.61-4.61,4.61Zm140.56,0c-2.55,0-4.61-2.06-4.61-4.61s2.06-4.61,4.61-4.61,4.61,2.06,4.61,4.61-2.06,4.61-4.61,4.61Zm-36.94-234.11c2.55,0,4.61,2.06,4.61,4.61s-2.06,4.61-4.61,4.61-4.61-2.06-4.61-4.61,2.06-4.61,4.61-4.61Zm-32.76,0c2.55,0,4.61,2.06,4.61,4.61s-2.06,4.61-4.61,4.61-4.61-2.06-4.61-4.61,2.06-4.61,4.61-4.61Zm-33.45,0c2.55,0,4.61,2.06,4.61,4.61s-2.06,4.61-4.61,4.61-4.61-2.06-4.61-4.61,2.06-4.61,4.61-4.61Zm-.11,234.11c-2.55,0-4.61-2.06-4.61-4.61s2.06-4.61,4.61-4.61,4.61,2.06,4.61,4.61-2.06,4.61-4.61,4.61Zm33.14,0c-2.55,0-4.61-2.06-4.61-4.61s2.06-4.61,4.61-4.61,4.61,2.06,4.61,4.61-2.06,4.61-4.61,4.61Zm37.8-4.61c0,2.55-2.06,4.61-4.61,4.61s-4.61-2.06-4.61-4.61,2.06-4.61,4.61-4.61,4.61,2.06,4.61,4.61Zm19.83-68.11c0,2.99-.47,5.89-2.59,8.34-2.79,3.22-6.21,4.68-10.45,4.66-11.93-.05-23.85,.01-35.78,.03-.67-.02-1.34-.06-2.02-.06-17.21,0-34.42,0-51.63,0-1.17,0-2.29-.16-3.46-.42-4.95-1.1-9.23-6.48-9.22-11.77,.06-29.91,.06-59.82,0-89.73,0-4.02,1.13-7.35,4.16-10.05,2.19-1.95,4.65-3.15,7.59-3.15,16.33-.02,32.66,0,48.99,0,.62,0,1.24-.04,1.86-.06,.03-.45,.03-.9,.02-1.35,.01,.45,0,.9-.02,1.35,13.64,.02,27.27,.03,40.91,.05,.52,0,1.05-.03,1.54,.08,5.95,1.4,10.13,6,10.13,12.63-.02,29.82,0,59.63-.03,89.45Zm54.49-16.07c2.54,0,4.59,2.07,4.59,4.61s-2.05,4.6-4.59,4.61c0,0-.01,0-.02,0-2.55,0-4.61-2.06-4.61-4.61s2.06-4.61,4.61-4.61c0,0,.01,0,.02,0Z"/>
  <path class="cls-3" d="M294.25,239.49v-.62c0-5.18,.02-10.37,.03-15.55s.01-10.37,0-15.55c0-2.65-2.02-4.35-4.89-4.35-19.08,0-38.15,0-57.23,0-5.65,0-11.3,0-16.95,0-3.15,0-4.91,1.8-4.91,4.97,.02,9.36,.03,21.6,.05,31.07h.11s-.07,.04-.11,.04l-.07,9.5s.02,0,.03,0c0,.97-.01,2.15-.01,4.18,0,9.75,.04,19.5-.02,29.24-.02,3.39,2.07,5.03,5.11,5.02,24.68-.02,49.36-.01,74.04-.01,2.92,0,4.88-1.78,4.88-4.54,.01-11.3,.01-22.61,0-33.91h-.05l.06-9.48s-.04,0-.06,0Zm-33.9-8.27c-5.77,0-10.69,3.62-12.64,8.71-.57,1.5-.9,3.13-.9,4.83s.32,3.28,.88,4.76c1.93,5.13,6.86,8.78,12.67,8.78s11.08-3.91,12.86-9.31c5.74,0,8.51,.02,11.76,.02,0,9.21,0,18.42,.01,27.63,0,.95-.05,1.48-1.28,1.48-20.94-.04-41.87-.04-62.81,0-1.22,0-1.29-.51-1.29-1.47,.03-8.97,.02-17.93,.02-26.9,0-.24,0-.46,0-.67,1.83,.04,1.24,.05,11.08,0,1.66,0,2.47,4.64,3.07,6.44,.94,2.81,2.43,5.3,4.38,7.22,4.46,4.41,9.47,6.16,14.79,5.87v-8.21c-5.79-1.01-10.53-5.01-12.55-10.33-.68-1.79-1.07-3.71-1.07-5.74s.4-4.01,1.1-5.82c2.04-5.28,6.76-9.24,12.52-10.25v-8.23c-.49-.01-1-.01-1.51,.01-8.17,.34-13.99,4.51-17.67,13.07-.73,1.7-1.65,6.36-3.2,6.36-10.04-.02-9.16-.03-11-.02,.02-7.92,.06-17.41,.01-25.13,0-1.31,.34-1.61,1.62-1.61,20.72,.04,41.44,.04,62.17,0,1.27,0,1.64,.28,1.63,1.6-.05,6.7-.01,17.57,0,25.22-3.36,.05-6.23,.12-12.12,.15-2.01-4.96-6.87-8.46-12.55-8.46Zm4.61,13.54c0,2.55-2.06,4.61-4.61,4.61s-4.61-2.06-4.61-4.61,2.06-4.61,4.61-4.61,4.61,2.06,4.61,4.61Z"/>
</svg>